PathFileType	4	(X/Y/Z)	C:/Users/beibeiliu/ov580/test_trc\sequence.36_training_dense_right.trc
DataRate	CameraRate	NumFrames	NumMarkers	Units	OrigDataRate	OrigDataStartFrame	OrigNumFrames
120	120	21	19	mm	120	28	165
Frame#	Time	ThumbCMC			ThumbMCP			ThumbIP			ThumbTip			IndexMCP			IndexPIP			IndexTip			MiddleMCP			MiddlePIP			MiddleTip			RingMCP			RingPIP			RingTip			PinkyMCP			PinkyPIP			PinkyTip			BackHand1			BackHand2			BackHand3	
		X0	Y0	Z0	X1	Y1	Z1	X2	Y2	Z2	X3	Y3	Z3	X4	Y4	Z4	X5	Y5	Z5	X6	Y6	Z6	X7	Y7	Z7	X8	Y8	Z8	X9	Y9	Z9	X10	Y10	Z10	X11	Y11	Z11	X12	Y12	Z12	X13	Y13	Z13	X14	Y14	Z14	X15	Y15	Z15	X16	Y16	Z16	X17	Y17	Z17	X18	Y18	Z18	
27	0.225	94.6459	60.0715	63.6359	100.365	61.8559	32.0367	105.671	49.8936	6.58845	98.9469	37.9267	-11.2064	129.511	9.26777	34.4415	138.86	2.79316	11.7097	135.1	11.2147	-16.6623	118.291	-8.68237	34.8132	125.605	-21.635	8.60385	122.694	-11.3579	-21.6212	97.1006	-15.3281	35.9291	108.996	-21.9999	10.1188	103.135	-15.8402	-15.5226	75.8787	-18.0185	38.0846	79.0051	-29.108	18.3732	87.773	-20.2434	-6.07374	80.9313	5.39172	67.3169	68.2515	21.0686	89.7741	95.9807	27.0091	78.6452	
28	0.233333	93.142	64.177	62.2398	99.4875	68.9425	30.4446	103.639	63.632	10.3176	103.753	49.8618	-11.4471	146.044	33.3805	35.1614	155.178	31.717	12.8232	146.296	39.4313	-16.3486	138.718	9.86216	34.0078	150.609	4.91537	10.098	144.635	10.7418	-21.0401	123.107	-3.10211	32.7834	132.885	-7.2683	9.37422	129.64	1.34941	-13.5104	101.107	-11.6291	35.0329	110.659	-18.4358	14.7746	111.581	-13.0014	-6.49443	95.7063	12.1091	68.3471	76.9346	18.3574	86.8122	104.492	37.1043	78.5157	
29	0.241667	91.9521	64.7158	65.0109	94.7769	73.3223	33.6558	103.554	72.1304	8.09798	108.227	54.3654	-10.3169	152.003	49.49	32.9732	160.767	53.0561	12.1625	152.28	57.9268	-13.038	152.792	25.6775	32.0156	162.936	25.2132	5.56558	156.017	34.8935	-22.996	138.531	10.148	32.6246	151.716	11.9584	6.86186	146.324	21.2269	-16.0245	121.512	-2.62438	34.4299	133.04	-6.93143	11.9441	132.77	-1.47494	-8.00626	111.494	15.3803	66.3677	91.5252	15.0954	86.138	108.406	43.5895	80.4721	
30	0.25	96.0523	65.5441	62.8964	95.5071	73.2402	32.024	101.254	71.4519	10.2719	108.889	60.5632	-8.47867	152.386	71.955	32.7368	160.859	72.2507	7.12429	153.728	75.098	-15.8439	161.8	46.232	29.0892	172.376	48.875	1.46491	161.735	50.5358	-25.4313	157.387	27.0816	29.9631	166.737	33.503	5.9868	157.438	35.3051	-20.4493	144.582	10.8936	32.9335	155.656	12.678	12.7285	155.169	15.8718	-7.15528	127.899	21.9631	65.7011	111.649	19.485	83.6725	118.551	47.8474	79.8309	
31	0.258333	95.6658	61.0026	61.2849	93.3004	67.4285	27.4677	98.5186	67.7533	7.10112	109.436	60.127	-14.8277	145.766	84.857	28.5694	151.38	93.5994	1.32892	146.936	89.7787	-23.4355	165.275	69.5007	24.9624	173.617	73.1765	-1.1015	163.723	72.5111	-31.4384	167.182	51.7159	26.8931	175.23	56.2781	2.72324	168.947	59.3456	-18.5524	163.365	27.77	32.5902	172.825	34.1002	14.0522	173.021	39.2415	-8.02378	142.46	37.9218	63.6431	128.339	30.0372	86.3594	125.997	54.2022	75.7928	
32	0.266667	94.9591	53.2549	59.8167	91.9223	56.8335	24.4372	95.8362	60.4194	1.62285	108.732	57.0905	-18.0892	132.142	94.5622	22.853	132.268	104.234	-6.40795	132.03	100.273	-27.1335	155.132	87.6914	23.2322	162.5	98.972	-4.42926	165.694	92.2773	-32.6691	168.015	72.9041	27.2484	175.711	83.0216	4.67043	176.827	80.9488	-21.3157	173.837	51.8986	34.399	187.296	56.9842	16.7262	188.093	63.1118	-7.6265	152.878	52.6596	64.241	144.504	40.2676	82.6403	129.281	64.2	70.4957	
33	0.275	98.5771	50.3338	56.2484	89.2833	48.1526	27.6819	89.9392	51.2969	3.76252	95.5915	54.7661	-20.6484	116.82	98.0054	11.0023	117.989	102.317	-11.7657	121.27	98.3434	-35.383	148.151	95.2523	16.9857	151.975	109.221	-8.02956	156.49	111.524	-33.5178	165.002	88.6099	21.318	171.652	99.1156	2.87712	177.098	101.832	-17.5827	176.569	70.1461	31.2707	187.675	77.5145	17.9091	198.583	86.379	-1.45359	150.919	67.9849	61.0504	144.834	56.3559	79.0469	121.076	68.9995	67.7649	
34	0.283333	95.7293	56.0143	53.9361	82.3581	52.5907	27.0571	81.16	53.8923	8.80262	73.9785	56.3341	-15.6812	109.24	96.61	4.66486	101.706	97.0671	-22.7042	103.584	91.4613	-41.9379	132.115	104.848	5.99984	137.501	113.389	-13.8602	143.976	120.42	-41.0119	152.37	96.4938	15.9291	160.212	106.774	-0.0469143	164.745	119.663	-21.6717	168.859	80.5002	25.9456	180.603	88.4792	14.4029	189.092	101.163	3.21873	145.425	74.7737	55.3791	139.915	64.5806	77.0693	116.532	77.7877	61.3696	
35	0.291667	92.5824	60.7701	55.5765	77.9976	59.3946	26.5063	68.7723	60.0074	9.17863	64.0831	62.1989	-9.31542	97.7576	97.7947	-3.67662	99.1455	93.2079	-24.9272	94.2391	83.0639	-46.1913	129.054	107.846	-1.97255	132.523	115.112	-22.6931	139.684	121.543	-45.3456	150.332	98.4371	10.7488	153.644	113.233	-8.61679	163.447	124.569	-24.5914	165.158	87.1429	19.462	172.387	91.9148	10.7243	185.556	105.216	1.80033	138.391	84.3641	50.1265	137.665	72.3384	74.645	115.93	84.7321	58.6171	
36	0.3	90.0936	65.6921	48.9432	76.6614	61.039	27.3406	63.6479	67.3617	4.79368	53.8502	67.8349	-7.876	99.4823	94.5401	-10.4749	92.3658	86.2833	-32.0446	93.7142	71.7426	-50.2845	123.387	103.252	-10.8035	128.716	107.319	-31.1518	131.339	115.707	-57.3659	145.75	94.7989	1.44674	152.498	107.332	-18.535	158.607	118.657	-33.6035	161.807	79.0987	14.3034	174.887	90.4203	2.13208	179.237	100.139	-1.66232	137.199	81.3071	41.1276	135.825	76.3471	63.0836	113.978	84.3396	54.3222	
37	0.308333	87.7328	66.306	48.6295	69.7552	67.3393	25.7151	57.7959	75.7837	3.23397	48.2893	78.5737	-9.79076	94.9758	90.6165	-14.6909	89.6356	79.857	-36.6989	79.5205	59.104	-50.9691	121.272	97.0478	-19.3997	124.387	98.6844	-41.8512	126.093	102.527	-67.6252	142.034	88.9855	-7.3304	147.781	99.725	-28.5574	151.838	109.132	-41.975	158.219	72.6786	4.58542	169.241	81.7309	-6.33913	177.792	94.2939	-11.746	136.403	78.7704	34.6004	138.36	73.8711	55.1905	113.048	86.8863	42.9114	
38	0.316667	87.951	77.6439	48.5018	71.9474	82.6244	25.2906	62.4912	93.3762	3.92618	53.0279	96.8791	-7.62167	93.8242	92.5413	-20.8169	81.2666	78.542	-37.1055	70.7168	54.5418	-41.5088	122.423	93.2599	-24.2201	117.602	96.129	-46.5334	115.706	98.0012	-74.0089	140.21	86.1856	-17.1336	147.379	90.4054	-31.9962	151.886	100.536	-50.0796	151.744	65.9128	-0.0233545	163.16	69.0249	-9.7731	174.717	80.1002	-17.5697	135.591	75.6711	28.222	136.632	73.5885	49.9491	118.584	91.0765	40.2492	
39	0.325	98.5791	95.0508	48.7419	89.0177	103.55	21.8111	84.8081	112.223	2.87766	74.937	120.222	-7.55308	107.37	102.561	-15.9794	88.4827	91.1065	-33.0035	68.1805	71.0681	-31.9786	130.452	96.7389	-28.0525	127.237	95.2332	-51.8742	123.104	93.7736	-76.8347	150.235	78.094	-20.4708	155.037	83.5333	-37.5705	162.047	88.9778	-56.8607	153.539	61.4114	-3.26996	167.528	59.4277	-13.4882	182.808	63.6145	-21.9801	145.944	71.9027	24.9169	146.346	67.8814	50.3802	132.734	95.5442	38.5291	
40	0.333333	126.289	107.76	46.699	116.338	117.62	24.8896	113.899	129.798	5.98276	111.941	140.58	-7.41077	128.867	108.554	-17.8058	105.599	101.192	-30.1142	77.5807	91.5071	-24.0823	147.514	88.4213	-27.9497	140.766	92.518	-48.6129	133.712	92.4765	-76.0759	155.142	66.4925	-17.7049	161.379	69.9955	-39.3194	168.004	68.9433	-57.7024	154.492	47.5424	-2.42575	165	42.8738	-14.8711	179.013	40.3032	-22.5478	154.282	68.3015	23.8938	157.543	64.1986	49.0736	152.697	89.4428	37.1728	
41	0.341667	151.786	107.166	44.4946	145.801	124.068	25.4922	148.221	132.785	2.62208	149.784	147.655	-11.1971	147.272	108.219	-21.0531	121.982	112.951	-30.7054	98.114	119.08	-24.9693	152.933	82.8123	-33.4434	144.253	83.6891	-53.5769	133.517	86.7671	-78.4268	151.315	57.4973	-22.9242	154.409	58.148	-40.0254	156.712	52.5052	-64.386	140.973	42.8472	-1.54491	149.395	34.9596	-19.2886	156.526	24.7876	-24.08	155.976	58.4273	23.9037	156.764	57.1287	44.248	167.081	83.3247	34.4783	
42	0.35	168.532	100.387	38.0811	166.57	118.244	20.1119	172.094	129.59	-2.34215	178.155	142.069	-16.163	155.252	100.583	-28.3764	139.032	113.557	-36.6849	118.893	129.783	-33.4211	149.54	75.2875	-36.8349	142.262	80.3767	-54.2265	131.286	89.6716	-78.1641	142.847	58.5207	-23.6821	140.884	53.3239	-44.5834	141.212	51.1724	-62.4038	127.925	45.1778	-2.38202	128.444	36.373	-14.6411	133.989	22.3255	-24.9342	151.256	55.2945	21.0882	153.269	52.2995	41.3464	171.55	73.0903	25.8798	
43	0.358333	182.416	96.1525	35.4388	180.857	111.182	15.8451	187.311	121.33	-3.29992	193.843	130.775	-16.7248	168.476	91.8766	-29.0982	157.121	114.778	-46.5384	143.417	131.673	-48.8748	153.463	75.0393	-33.5097	147.042	85.4648	-57.75	135.107	97.3745	-76.3597	140.798	58.2473	-22.9449	136.086	55.4059	-47.5708	129.629	51.2197	-63.6587	125.179	48.7114	-3.37931	123.507	41.8065	-17.1373	121.862	26.9633	-25.3347	151.89	55.3701	19.7328	155.313	50.852	40.0277	173.019	64.9204	27.1737	
44	0.366667	191.362	88.2723	33.3669	196.479	104.51	17.3695	203.944	113.951	-2.01119	213.133	123.212	-16.4636	183.468	88.5619	-33.4592	178.472	103.531	-48.0628	164.561	121.074	-61.509	163.589	75.4975	-36.0913	153.273	87.0349	-57.3083	143.704	106.512	-73.4591	146.073	59.1887	-26.6314	141.854	57.8058	-48.2281	134.304	57.092	-64.9803	134.121	54.6892	-5.11512	125.672	43.3207	-17.1506	125.417	31.4396	-28.2058	158.491	52.3956	15.7959	160.922	50.5041	44.1708	183.882	61.4326	27.7105	
45	0.375	206.601	79.5616	36.5611	217.384	95.1926	17.6695	227.59	103.624	-0.659057	236.634	112.525	-15.767	197.286	76.8195	-28.003	197.611	93.5478	-47.6653	190.493	110.87	-66.1982	177.913	71.979	-34.0298	171.52	86.8765	-53.4822	158.807	112.886	-64.9703	160.12	59.3254	-21.9021	152.719	59.3015	-47.0972	146.583	59.982	-65.7514	141.356	51.6799	-3.57835	137.28	47.6312	-15.7334	127.972	31.2956	-23.5986	170.748	51.1981	19.2923	168.78	43.872	45.756	197.341	54.9864	26.1051	
46	0.383333	217.035	74.2073	37.378	225.138	88.226	19.7388	236.911	98.222	-1.5526	241.221	105.821	-13.3658	208.566	73.2784	-27.9609	204.055	86.4021	-48.364	198.566	106.093	-66.9112	183.067	69.6026	-32.7923	177.995	90.1635	-52.3475	169.138	117.848	-55.0978	166.324	56.5778	-22.4825	159.179	58.8159	-47.5415	152.891	62.7947	-67.2565	144.827	49.7862	-3.50486	135.761	43.3816	-17.1817	133.099	33.6547	-28.0364	170.501	47.586	15.9239	173.117	40.948	40.9264	198.45	48.4549	26.9558	
47	0.391667	205.998	75.5471	36.4738	218.345	94.8316	16.5506	225.493	105.387	-1.65595	225.967	113.976	-19.9796	200.163	78.6716	-29.851	191.472	95.436	-50.8273	189.261	118.033	-60.0096	171.108	74.0774	-36.7021	165.633	99.2838	-52.9175	160.731	128.232	-47.9006	156.202	59.262	-24.6537	146.095	62.4265	-50.3144	142.636	68.5083	-67.7176	138.875	53.3705	-6.58733	133.026	47.9953	-21.2385	126.822	36.2071	-30.9632	164.466	47.1175	16.2551	170.121	42.3221	41.5755	193.175	50.608	26.7561	
